<svg version="1.1" id="Layer_1" xmlns="http://www.w3.org/2000/svg" xmlns:xlink="http://www.w3.org/1999/xlink" x="0px" y="0px"
	 width="100%" viewBox="0 0 357 325" enable-background="new 0 0 357 325" xml:space="preserve">
<path fill="#010101" opacity="1.000000" stroke="none" 
	d="
M299.000000,326.000000 
	C213.645767,326.000000 128.291550,326.000000 42.123344,325.714996 
	C41.983032,324.989807 42.603584,324.304474 43.338127,324.145416 
	C60.724529,320.379883 73.241295,310.525452 80.833008,294.407776 
	C84.585892,286.440186 88.501617,278.548920 92.216293,270.563843 
	C96.905518,260.483856 101.464737,250.343399 106.500885,240.108917 
	C108.631447,239.947571 110.341171,239.906326 112.174973,240.074066 
	C112.868240,240.197327 113.437439,240.111618 114.474007,239.953751 
	C125.586075,239.720322 136.230774,239.559052 147.279297,239.514374 
	C149.273285,239.554062 150.863464,239.477173 152.467941,239.399597 
	C155.256180,217.793839 161.834854,198.240082 177.150116,180.908798 
	C172.719025,180.908798 169.854553,180.908798 166.540710,180.838654 
	C163.061966,180.832077 160.032593,180.895630 156.545273,180.850769 
	C149.178970,180.785385 142.270615,180.828400 135.229523,180.526245 
	C135.625626,178.672363 136.064697,177.124756 136.698547,175.661530 
	C139.824814,168.444626 143.002701,161.250076 146.409912,153.812897 
	C147.269791,152.403763 147.940018,151.255600 148.485718,150.050995 
	C155.091476,135.469116 161.603043,120.843559 168.369873,106.336998 
	C169.187637,104.583885 171.358612,103.461998 173.073975,102.362343 
	C176.170807,108.784851 179.096085,114.892555 181.988861,121.364899 
	C185.641647,129.486755 189.326965,137.243973 192.978577,145.361908 
	C194.339630,148.471161 195.734406,151.219696 197.181229,154.308807 
	C198.525360,157.009552 199.817413,159.369720 200.958694,161.454422 
	C217.980942,152.998077 234.235062,144.843933 250.585617,136.887924 
	C252.986343,135.719757 254.882843,134.989227 252.992645,131.642212 
	C249.238205,123.859665 245.567383,116.430145 241.990326,108.631859 
	C239.401886,102.504936 236.719681,96.746780 233.983124,90.630348 
	C231.249191,84.848053 228.569626,79.424034 225.897079,73.628311 
	C222.966568,67.442680 220.029037,61.628750 217.073425,55.452896 
	C215.168961,50.790264 213.282578,46.489555 211.262726,41.871353 
	C208.769592,36.363213 206.409897,31.172565 203.995087,25.641508 
	C202.664307,23.458481 201.388657,21.615864 200.117126,19.412653 
	C198.835480,16.334990 197.549698,13.617923 196.230988,10.501970 
	C195.799545,5.296252 193.457855,3.001796 188.400299,3.612629 
	C185.298523,3.987251 182.135178,3.852166 178.541046,3.840485 
	C172.095352,3.706614 166.099350,3.861637 160.124222,3.577676 
	C156.800827,3.419735 155.063034,4.587644 153.637558,7.588723 
	C146.797699,21.988871 139.678207,36.255859 132.756287,50.617496 
	C128.378082,59.701443 124.172363,68.868515 119.641769,78.251839 
	C118.390305,80.773087 117.439308,83.066025 116.373520,85.304306 
	C110.735786,97.144203 105.069183,108.970360 99.165421,121.032120 
	C92.159790,135.331863 85.358063,149.380264 78.667168,163.481232 
	C76.431610,168.192642 74.479294,173.038422 72.168793,178.056030 
	C65.843597,190.797531 59.702419,203.284302 53.675217,215.825867 
	C51.604462,220.134735 49.818478,224.580475 47.658653,229.203308 
	C41.420708,242.207504 35.426521,254.972092 29.183077,267.969238 
	C26.413076,273.414337 23.892332,278.626862 21.140087,284.069702 
	C19.171297,288.351440 17.434008,292.402771 15.420311,296.685486 
	C11.689155,304.011871 8.429482,311.212128 4.687853,318.152527 
	C3.093048,321.110748 2.336691,323.473846 5.000000,326.000000 
	C3.667239,326.000000 2.334477,326.000000 1.001287,326.000000 
	C1.000858,217.713715 1.000858,109.427422 1.000858,1.070566 
	C119.901871,1.070566 238.803787,1.070566 357.852844,1.070566 
	C357.852844,109.333183 357.852844,217.666565 357.852844,326.000000 
	C352.602905,326.000000 347.271912,326.000000 340.966736,325.932922 
	C339.936798,324.061249 340.422729,322.010773 339.733917,320.493652 
	C336.294495,312.918457 332.546631,305.483246 328.920166,297.623199 
	C324.969025,288.809479 321.005005,280.371368 316.992859,271.566895 
	C313.316986,263.461121 309.689270,255.721756 306.009064,247.620499 
	C301.277527,237.510422 296.598480,227.762253 291.942810,217.649979 
	C291.036377,215.342896 289.935760,213.461105 289.213104,211.443909 
	C287.791931,207.476929 285.604706,207.165283 281.925110,208.858231 
	C273.813904,212.590134 265.325958,215.525925 257.317047,219.450394 
	C250.662537,222.711197 244.290253,226.656876 238.194382,230.878784 
	C236.487274,232.061096 234.897079,235.745621 235.505295,237.502899 
	C237.379379,242.917511 240.342407,247.955246 242.944550,253.496216 
	C248.625702,265.917999 254.244675,277.982971 259.897278,290.410583 
	C260.591370,292.276733 261.150360,293.835175 261.929810,295.274170 
	C265.340485,301.570770 268.625854,307.981476 275.149597,312.257385 
	C279.863831,315.352264 284.442047,318.137207 289.249054,321.207428 
	C292.159760,322.245087 294.881653,322.886200 297.496094,323.826141 
	C298.170715,324.068665 298.507843,325.249939 299.000000,326.000000 
M232.132095,6.764260 
	C225.418655,7.512153 218.705200,8.260046 210.946304,9.124404 
	C216.689560,21.356525 221.781174,32.200779 226.970230,43.775478 
	C229.257935,49.020908 231.363525,54.358791 233.949615,59.452736 
	C234.680115,60.891617 236.729111,62.323524 238.326172,62.520626 
	C241.540253,62.917301 244.859344,62.462925 248.973038,62.532349 
	C255.655884,63.990826 262.338745,65.449303 269.440857,67.453224 
	C274.057953,70.743210 278.675018,74.033188 283.644348,77.940437 
	C286.381104,82.976250 289.117828,88.012054 291.797485,93.920723 
	C291.829651,95.245285 291.641815,96.619644 291.928589,97.886581 
	C294.323944,108.468903 291.518158,118.256714 285.060394,126.170662 
	C279.738586,132.692505 272.561005,137.832016 265.725067,142.940842 
	C261.012726,146.462631 255.479721,148.886307 249.634583,151.765778 
	C244.426590,154.261185 239.218597,156.756577 233.324265,159.411270 
	C227.154419,162.631790 220.996170,165.874741 214.812469,169.068436 
	C199.090240,177.188538 185.765793,188.012207 176.546814,203.349579 
	C169.971390,214.288910 167.124786,226.363113 165.818069,239.278015 
	C173.859726,239.278015 181.442719,239.278015 189.928040,239.529160 
	C197.293686,239.449554 204.659317,239.369949 212.841843,239.545288 
	C217.256561,240.471603 219.390030,238.804230 220.818237,234.323380 
	C223.733780,225.176285 230.335464,218.883331 238.784897,214.583862 
	C247.153854,210.325363 255.615921,206.249832 264.779938,201.989532 
	C269.487823,199.988998 274.148041,197.866211 278.911957,196.009491 
	C297.613831,188.720520 314.729187,179.063034 328.128876,163.695953 
	C338.658295,151.620529 346.206207,138.151566 348.066254,121.943001 
	C348.363037,119.356812 349.014801,116.798737 349.151215,114.209167 
	C349.540985,106.807617 349.749939,99.396530 349.920715,91.129601 
	C348.445374,84.426224 346.970032,77.722847 345.516785,70.310303 
	C342.538788,64.133560 339.560822,57.956825 336.397247,51.083553 
	C330.964722,45.044781 325.532227,39.006004 319.825714,32.338074 
	C313.592316,28.136330 307.358917,23.934586 300.683533,19.179605 
	C295.820618,17.371506 290.957703,15.563408 285.610535,13.183454 
	C278.740112,11.490611 271.869659,9.797770 264.163666,7.790093 
	C253.778046,7.522364 243.392410,7.254634 232.132095,6.764260 
M189.114136,254.724152 
	C180.504730,253.859177 172.985641,256.693695 166.719025,262.292969 
	C158.175995,269.926300 153.952103,284.856598 159.884659,296.793427 
	C163.262939,300.862000 166.641220,304.930573 170.305664,309.647064 
	C181.779984,318.255096 199.827957,315.707855 209.613037,304.222015 
	C220.950500,290.913971 218.041565,273.489777 207.784103,263.254181 
	C202.949234,258.144958 197.047913,255.316772 189.114136,254.724152 
z"/>
<path fill="#905AB6" opacity="1.000000" stroke="none" 
	d="
M106.080032,240.229034 
	C101.464737,250.343399 96.905518,260.483856 92.216293,270.563843 
	C88.501617,278.548920 84.585892,286.440186 80.833008,294.407776 
	C73.241295,310.525452 60.724529,320.379883 43.338127,324.145416 
	C42.603584,324.304474 41.983032,324.989807 41.654686,325.714996 
	C39.299988,326.000000 36.599972,326.000000 33.383064,325.639679 
	C32.193310,319.641479 33.552441,314.867798 38.382664,311.344818 
	C40.094055,310.096619 41.806370,308.604553 42.941349,306.850494 
	C51.054359,294.312164 58.930676,281.620392 67.073196,269.101593 
	C70.299095,264.141907 73.767059,259.292389 77.578781,254.775818 
	C80.645233,251.142319 84.891968,248.460434 87.734711,244.692230 
	C93.012016,237.696930 97.449020,230.073105 102.606194,222.980225 
	C107.533020,216.204178 113.150436,209.929230 118.056473,203.139328 
	C122.433250,197.081909 126.125107,190.532700 130.406311,184.400955 
	C131.499954,182.834595 133.680878,182.027390 135.362274,180.871399 
	C142.270615,180.828400 149.178970,180.785385 156.449356,181.193039 
	C155.075500,183.021423 153.466568,185.349152 151.580215,185.601273 
	C145.581696,186.403000 142.470596,190.583084 139.217850,194.764618 
	C138.205170,196.066452 137.443207,197.560074 136.492584,198.913986 
	C130.944412,206.816010 125.223846,214.602112 119.862854,222.628647 
	C116.107681,228.250931 115.723755,236.604538 106.911766,238.024292 
	C106.526123,238.086426 106.352448,239.464142 106.080032,240.229034 
z"/>
<path fill="#8A5BB8" opacity="1.000000" stroke="none" 
	d="
M135.229523,180.526230 
	C133.680878,182.027390 131.499954,182.834595 130.406311,184.400955 
	C126.125107,190.532700 122.433250,197.081909 118.056473,203.139328 
	C113.150436,209.929230 107.533020,216.204178 102.606194,222.980225 
	C97.449020,230.073105 93.012016,237.696930 87.734711,244.692230 
	C84.891968,248.460434 80.645233,251.142319 77.578781,254.775818 
	C73.767059,259.292389 70.299095,264.141907 67.073196,269.101593 
	C58.930676,281.620392 51.054359,294.312164 42.941349,306.850494 
	C41.806370,308.604553 40.094055,310.096619 38.382664,311.344818 
	C33.552441,314.867798 32.193310,319.641479 32.933083,325.639679 
	C25.312424,326.000000 17.624847,326.000000 9.459164,325.575043 
	C9.799282,322.803131 9.984150,319.127380 11.562455,318.375122 
	C15.295934,316.595612 17.193592,313.998627 18.332584,310.367737 
	C19.524845,306.567017 20.776064,302.784821 22.271624,298.789246 
	C24.027378,295.390167 25.513029,292.196289 27.341377,288.904572 
	C29.126247,287.991699 30.492716,286.698120 32.025452,286.455658 
	C35.888039,285.844604 37.922089,283.899536 38.437374,280.019592 
	C38.575745,278.977722 39.491745,277.947113 40.255516,277.094788 
	C46.665653,269.941589 49.462440,259.663818 59.096432,255.280212 
	C59.648125,255.029205 59.981335,254.306137 60.426785,253.812286 
	C65.830849,247.820938 71.428276,241.990372 76.579956,235.789429 
	C80.478813,231.096466 84.003998,226.058289 87.340218,220.942078 
	C90.943642,215.416092 93.919899,209.479034 97.560387,203.979919 
	C101.844215,197.509033 106.125038,190.945053 111.222023,185.136475 
	C114.473724,181.430817 119.175850,178.983353 123.286621,176.054504 
	C124.592392,175.124207 126.411201,174.754059 127.439224,173.622467 
	C131.229492,169.450302 134.653320,164.942917 138.481628,160.808533 
	C140.786972,158.318863 143.585480,156.285858 146.162384,154.047638 
	C143.002701,161.250076 139.824814,168.444626 136.698547,175.661530 
	C136.064697,177.124756 135.625626,178.672363 135.229523,180.526230 
z"/>
<path fill="#CA4B9F" opacity="1.000000" stroke="none" 
	d="
M328.907288,297.998810 
	C332.546631,305.483246 336.294495,312.918457 339.733917,320.493652 
	C340.422729,322.010773 339.936798,324.061249 340.496277,325.932922 
	C327.312439,326.000000 313.624878,326.000000 299.468658,326.000000 
	C298.507843,325.249939 298.170715,324.068665 297.496094,323.826141 
	C294.881653,322.886200 292.159760,322.245087 289.417786,320.906372 
	C291.304901,319.475616 293.255707,317.908600 295.198578,317.918365 
	C301.761658,317.951263 304.880554,313.230530 307.836639,308.861420 
	C312.994019,301.238831 320.165344,298.281219 328.907288,297.998810 
z"/>
<path fill="#885DBC" opacity="1.000000" stroke="none" 
	d="
M22.001518,298.994507 
	C20.776064,302.784821 19.524845,306.567017 18.332584,310.367737 
	C17.193592,313.998627 15.295934,316.595612 11.562455,318.375122 
	C9.984150,319.127380 9.799282,322.803131 8.990528,325.575043 
	C7.933331,326.000000 6.866662,326.000000 5.399996,326.000000 
	C2.336691,323.473846 3.093048,321.110748 4.687853,318.152527 
	C8.429482,311.212128 11.689155,304.011871 15.683684,296.976074 
	C18.149483,297.688416 20.075500,298.341461 22.001518,298.994507 
z"/>
<path fill="#AE52B2" opacity="1.000000" stroke="none" 
	d="
M345.494690,71.019478 
	C346.970032,77.722847 348.445374,84.426224 349.622894,91.626221 
	C347.821564,93.737427 346.363831,95.397827 344.803986,96.956039 
	C342.383881,99.373611 339.876770,101.703812 337.438477,104.103500 
	C334.378601,107.114952 331.749573,110.386940 329.205719,113.925690 
	C323.587616,121.741142 316.614075,128.568451 310.410492,135.980469 
	C303.513458,144.220978 296.898895,152.697235 290.085358,161.008545 
	C282.678925,170.043045 275.089203,178.928864 267.773285,188.035278 
	C264.534851,192.066284 261.735657,196.470688 264.037140,202.094040 
	C255.615921,206.249832 247.153854,210.325363 238.784897,214.583862 
	C230.335464,218.883331 223.733780,225.176285 220.818237,234.323380 
	C219.390030,238.804230 217.256561,240.471603 212.427155,239.054993 
	C211.998520,238.065872 212.094833,237.533066 211.953293,237.073547 
	C210.754364,233.181793 209.814102,229.532013 216.007721,229.508820 
	C216.760742,229.505997 217.784775,228.485947 218.213303,227.685715 
	C220.283401,223.819870 223.178024,220.055344 223.966476,215.909912 
	C225.987671,205.283264 233.810394,197.975647 238.341644,188.825363 
	C240.516022,184.434464 243.720856,180.390442 247.105576,176.798615 
	C252.941910,170.605194 258.181061,164.144470 261.348267,155.893356 
	C262.779358,154.274445 263.944031,152.808090 264.927490,151.228882 
	C266.331787,148.973907 267.139893,146.116241 269.023743,144.437332 
	C273.584167,140.373016 279.685974,138.516251 283.298462,132.780075 
	C286.442688,127.787399 293.217834,125.241623 293.452667,118.084290 
	C293.466736,117.656036 293.840302,117.063766 294.217834,116.849525 
	C300.231537,113.436752 303.729004,108.141998 306.791260,102.034561 
	C309.719086,96.195221 313.913391,90.965584 317.770660,85.626633 
	C320.285553,82.145676 322.726166,78.337067 326.055145,75.795036 
	C329.401459,73.239746 333.685028,71.650017 337.796082,70.460091 
	C340.114105,69.789154 342.912628,70.778198 345.494690,71.019478 
z"/>
<path fill="#885DBC" opacity="1.000000" stroke="none" 
	d="
M146.409912,153.812897 
	C143.585480,156.285858 140.786972,158.318863 138.481628,160.808533 
	C134.653320,164.942917 131.229492,169.450302 127.439224,173.622467 
	C126.411201,174.754059 124.592392,175.124207 123.286621,176.054504 
	C119.175850,178.983353 114.473724,181.430817 111.222023,185.136475 
	C106.125038,190.945053 101.844215,197.509033 97.560387,203.979919 
	C93.919899,209.479034 90.943642,215.416092 87.340218,220.942078 
	C84.003998,226.058289 80.478813,231.096466 76.579956,235.789429 
	C71.428276,241.990372 65.830849,247.820938 60.426785,253.812286 
	C59.981335,254.306137 59.648125,255.029205 59.096432,255.280212 
	C49.462440,259.663818 46.665653,269.941589 40.255516,277.094788 
	C39.491745,277.947113 38.575745,278.977722 38.437374,280.019592 
	C37.922089,283.899536 35.888039,285.844604 32.025452,286.455658 
	C30.492716,286.698120 29.126247,287.991699 27.244114,288.563721 
	C24.993296,286.826965 23.182442,285.333160 21.371588,283.839355 
	C23.892332,278.626862 26.413076,273.414337 29.497751,268.166779 
	C32.078773,268.725250 35.069084,270.470123 35.952988,269.722992 
	C41.182842,265.302368 46.434116,260.709808 50.679821,255.379837 
	C54.610767,250.445007 53.952492,242.507446 60.755669,239.110855 
	C61.413399,238.782486 61.895275,237.369400 61.850105,236.491150 
	C61.643593,232.475281 64.505898,230.943954 67.126350,228.803986 
	C69.211876,227.100845 70.408028,224.308655 72.330635,221.906830 
	C74.008064,220.420425 75.440796,219.100281 76.684860,217.621414 
	C82.494675,210.714951 85.224373,202.021637 91.603958,195.082703 
	C100.132607,185.806320 106.223145,174.289032 116.390472,166.255722 
	C117.090843,165.702332 117.694252,164.534470 117.689156,163.656174 
	C117.639183,155.050079 124.881424,150.413544 128.937393,144.335419 
	C134.355698,136.215759 142.337509,129.840988 148.919113,122.450302 
	C152.757416,118.140137 157.009521,113.761574 159.334946,108.625717 
	C165.482224,95.049065 174.093384,83.364723 184.021408,72.454788 
	C190.693863,65.122398 197.143875,57.588017 203.753891,50.198097 
	C206.212738,47.449116 208.843689,44.854076 211.396179,42.188843 
	C213.282578,46.489555 215.168961,50.790264 216.925934,55.800850 
	C215.934235,59.826431 214.658844,62.302189 210.736588,63.449818 
	C207.076431,64.520767 202.893509,66.364113 200.640228,69.212090 
	C193.430649,78.324547 187.042191,88.084373 180.243332,97.527000 
	C179.402023,98.695442 178.083755,99.599747 176.828323,100.367928 
	C175.626907,101.103050 174.219345,101.501251 172.902405,102.047546 
	C171.358612,103.461998 169.187637,104.583885 168.369873,106.336998 
	C161.603043,120.843559 155.091476,135.469116 148.485718,150.050995 
	C147.940018,151.255600 147.269791,152.403763 146.409912,153.812897 
z"/>
<path fill="#B350AE" opacity="1.000000" stroke="none" 
	d="
M264.408539,202.041779 
	C261.735657,196.470688 264.534851,192.066284 267.773285,188.035278 
	C275.089203,178.928864 282.678925,170.043045 290.085358,161.008545 
	C296.898895,152.697235 303.513458,144.220978 310.410492,135.980469 
	C316.614075,128.568451 323.587616,121.741142 329.205719,113.925690 
	C331.749573,110.386940 334.378601,107.114952 337.438477,104.103500 
	C339.876770,101.703812 342.383881,99.373611 344.803986,96.956039 
	C346.363831,95.397827 347.821564,93.737427 349.677521,92.056015 
	C349.749939,99.396530 349.540985,106.807617 349.151215,114.209167 
	C349.014801,116.798737 348.363037,119.356812 348.066254,121.943001 
	C346.206207,138.151566 338.658295,151.620529 328.128876,163.695953 
	C314.729187,179.063034 297.613831,188.720520 278.911957,196.009491 
	C274.148041,197.866211 269.487823,199.988998 264.408539,202.041779 
z"/>
<path fill="#845EBD" opacity="1.000000" stroke="none" 
	d="
M211.262726,41.871353 
	C208.843689,44.854076 206.212738,47.449116 203.753891,50.198097 
	C197.143875,57.588017 190.693863,65.122398 184.021408,72.454788 
	C174.093384,83.364723 165.482224,95.049065 159.334946,108.625717 
	C157.009521,113.761574 152.757416,118.140137 148.919113,122.450302 
	C142.337509,129.840988 134.355698,136.215759 128.937393,144.335419 
	C124.881424,150.413544 117.639183,155.050079 117.689156,163.656174 
	C117.694252,164.534470 117.090843,165.702332 116.390472,166.255722 
	C106.223145,174.289032 100.132607,185.806320 91.603958,195.082703 
	C85.224373,202.021637 82.494675,210.714951 76.684860,217.621414 
	C75.440796,219.100281 74.008064,220.420425 72.146309,221.589264 
	C72.305145,217.840378 72.979935,214.315918 73.689964,210.607407 
	C70.516144,211.193085 69.375725,216.951584 65.091316,213.670563 
	C70.941132,206.138870 76.852737,199.051880 82.418999,191.703293 
	C88.511826,183.659515 94.254074,175.351013 100.213364,167.204895 
	C102.736389,163.756012 105.558090,160.521423 108.008194,157.024216 
	C113.390770,149.341278 118.319946,141.317795 124.061279,133.919998 
	C126.463600,130.824554 130.143692,128.814392 129.898483,124.148857 
	C129.868561,123.579712 131.011505,123.001328 131.499237,122.344322 
	C135.701065,116.684273 139.823807,110.964729 144.078369,105.344864 
	C147.350662,101.022484 150.711975,96.762787 154.167145,92.585594 
	C155.842133,90.560600 158.160919,89.014656 159.602097,86.859810 
	C163.819763,80.553581 166.927948,73.301468 171.978333,67.805191 
	C179.031357,60.129501 184.599625,51.661999 188.850586,42.384205 
	C192.207047,35.058674 198.940109,31.388378 204.050217,25.981918 
	C206.409897,31.172565 208.769592,36.363213 211.262726,41.871353 
z"/>
<path fill="#805FBE" opacity="1.000000" stroke="none" 
	d="
M203.995087,25.641506 
	C198.940109,31.388378 192.207047,35.058674 188.850586,42.384205 
	C184.599625,51.661999 179.031357,60.129501 171.978333,67.805191 
	C166.927948,73.301468 163.819763,80.553581 159.602097,86.859810 
	C158.160919,89.014656 155.842133,90.560600 154.167145,92.585594 
	C150.711975,96.762787 147.350662,101.022484 144.078369,105.344864 
	C139.823807,110.964729 135.701065,116.684273 131.499237,122.344322 
	C131.011505,123.001328 129.868561,123.579712 129.898483,124.148857 
	C130.143692,128.814392 126.463600,130.824554 124.061279,133.919998 
	C118.319946,141.317795 113.390770,149.341278 108.008194,157.024216 
	C105.558090,160.521423 102.736389,163.756012 100.213364,167.204895 
	C94.254074,175.351013 88.511826,183.659515 82.418999,191.703293 
	C76.852737,199.051880 70.941132,206.138870 64.761414,213.771912 
	C61.114254,218.275803 57.539143,222.129013 54.780254,226.497665 
	C52.870972,229.521027 51.047108,230.488266 47.902405,228.963684 
	C49.818478,224.580475 51.604462,220.134735 53.675217,215.825867 
	C59.702419,203.284302 65.843597,190.797531 72.542473,178.015686 
	C74.164810,177.224319 75.453865,176.946289 76.162422,176.151047 
	C82.217896,169.354645 88.472054,162.703247 94.088379,155.554108 
	C106.892944,139.254868 119.426506,122.741203 131.960938,106.231728 
	C141.795044,93.278961 151.481430,80.213791 161.195114,67.170013 
	C163.177917,64.507462 164.952225,61.690681 166.888351,58.992153 
	C171.324768,52.808804 175.874405,46.705463 180.240784,40.473442 
	C184.183716,34.845776 186.273987,27.796812 193.423065,24.708508 
	C195.901245,23.637972 197.896942,21.450537 200.113007,19.773249 
	C201.388657,21.615864 202.664307,23.458481 203.995087,25.641506 
z"/>
<path fill="#A853B4" opacity="1.000000" stroke="none" 
	d="
M261.000885,155.995499 
	C258.181061,164.144470 252.941910,170.605194 247.105576,176.798615 
	C243.720856,180.390442 240.516022,184.434464 238.341644,188.825363 
	C233.810394,197.975647 225.987671,205.283264 223.966476,215.909912 
	C223.178024,220.055344 220.283401,223.819870 218.213303,227.685715 
	C217.784775,228.485947 216.760742,229.505997 216.007721,229.508820 
	C209.814102,229.532013 210.754364,233.181793 211.953293,237.073547 
	C212.094833,237.533066 211.998520,238.065872 212.018707,238.927521 
	C204.659317,239.369949 197.293686,239.449554 189.352829,239.053284 
	C188.520538,236.946732 188.193283,235.323547 188.018097,233.684113 
	C187.094650,225.041046 191.368759,218.773163 196.532135,212.262512 
	C205.562149,200.876343 213.662872,188.749115 222.058762,176.865829 
	C226.152283,171.071945 230.033371,165.128006 234.010605,159.251984 
	C239.218597,156.756577 244.426590,154.261185 250.441650,151.820831 
	C254.849991,152.419220 259.136292,151.340973 261.000885,155.995499 
z"/>
<path fill="#B94FAB" opacity="1.000000" stroke="none" 
	d="
M291.919434,218.014084 
	C296.598480,227.762253 301.277527,237.510422 305.634949,247.658356 
	C300.353882,249.590408 295.487122,250.141739 290.730652,253.626663 
	C280.808746,260.896210 274.374054,270.185028 269.707642,281.079865 
	C267.734436,285.686829 265.671600,289.822021 259.863647,290.047913 
	C254.244675,277.982971 248.625702,265.917999 243.143402,253.204132 
	C247.036972,247.383667 249.993561,241.279755 254.712646,237.229233 
	C265.482758,227.984940 278.539001,222.541107 291.919434,218.014084 
z"/>
<path fill="#7C61C0" opacity="1.000000" stroke="none" 
	d="
M200.117126,19.412653 
	C197.896942,21.450537 195.901245,23.637972 193.423065,24.708508 
	C186.273987,27.796812 184.183716,34.845776 180.240784,40.473442 
	C175.874405,46.705463 171.324768,52.808804 166.888351,58.992153 
	C164.952225,61.690681 163.177917,64.507462 161.195114,67.170013 
	C151.481430,80.213791 141.795044,93.278961 131.960938,106.231728 
	C119.426506,122.741203 106.892944,139.254868 94.088379,155.554108 
	C88.472054,162.703247 82.217896,169.354645 76.162422,176.151047 
	C75.453865,176.946289 74.164810,177.224319 72.771179,177.782440 
	C74.479294,173.038422 76.431610,168.192642 78.667168,163.481232 
	C85.358063,149.380264 92.159790,135.331863 99.530304,121.130699 
	C104.901215,123.948288 107.853790,121.235405 110.524536,117.676163 
	C120.527672,104.345291 130.567474,91.041649 140.511520,77.666832 
	C147.080383,68.831680 153.509125,59.892372 160.274109,50.886696 
	C161.031540,50.182594 161.515457,49.591492 162.081131,48.658630 
	C164.775452,43.877834 167.388031,39.438793 170.309906,34.874313 
	C176.342224,28.404390 181.874512,21.870506 187.888199,15.814678 
	C190.093353,13.594068 193.438705,12.505708 196.263916,10.900854 
	C197.549698,13.617923 198.835480,16.334990 200.117126,19.412653 
z"/>
<path fill="#9E53B2" opacity="1.000000" stroke="none" 
	d="
M233.667435,159.331635 
	C230.033371,165.128006 226.152283,171.071945 222.058762,176.865829 
	C213.662872,188.749115 205.562149,200.876343 196.532135,212.262512 
	C191.368759,218.773163 187.094650,225.041046 188.018097,233.684113 
	C188.193283,235.323547 188.520538,236.946732 188.901672,238.927719 
	C181.442719,239.278015 173.859726,239.278015 165.818069,239.278015 
	C167.124786,226.363113 169.971390,214.288910 176.546814,203.349579 
	C185.765793,188.012207 199.090240,177.188538 214.812469,169.068436 
	C220.996170,165.874741 227.154419,162.631790 233.667435,159.331635 
z"/>
<path fill="#C34EA8" opacity="1.000000" stroke="none" 
	d="
M259.897278,290.410583 
	C265.671600,289.822021 267.734436,285.686829 269.707642,281.079865 
	C274.374054,270.185028 280.808746,260.896210 290.730652,253.626663 
	C295.487122,250.141739 300.353882,249.590408 305.687439,248.020264 
	C309.689270,255.721756 313.316986,263.461121 316.731750,271.815186 
	C314.421631,273.293274 312.354309,274.240021 310.221832,275.005157 
	C302.210175,277.879700 295.419037,282.289795 291.476257,290.134186 
	C287.821747,297.404938 284.735107,305.038177 276.964325,309.203796 
	C276.078430,309.678772 275.652649,311.012115 275.013550,311.947449 
	C268.625854,307.981476 265.340485,301.570770 261.929810,295.274170 
	C261.150360,293.835175 260.591370,292.276733 259.897278,290.410583 
z"/>
<path fill="#9559B8" opacity="1.000000" stroke="none" 
	d="
M106.500885,240.108917 
	C106.352448,239.464142 106.526123,238.086426 106.911766,238.024292 
	C115.723755,236.604538 116.107681,228.250931 119.862854,222.628647 
	C125.223846,214.602112 130.944412,206.816010 136.492584,198.913986 
	C137.443207,197.560074 138.205170,196.066452 139.217850,194.764618 
	C142.470596,190.583084 145.581696,186.403000 151.580215,185.601273 
	C153.466568,185.349152 155.075500,183.021423 156.907318,181.301453 
	C160.032593,180.895630 163.061966,180.832077 166.526031,181.209106 
	C166.210068,183.287445 165.601318,185.009460 164.686920,186.550049 
	C154.981842,202.901321 148.980728,220.490356 146.875473,239.397781 
	C136.230774,239.559052 125.586075,239.720322 114.302574,239.820160 
	C113.126144,239.794174 112.588516,239.829620 112.050888,239.865082 
	C110.341171,239.906326 108.631447,239.947571 106.500885,240.108917 
z"/>
<path fill="#9459B7" opacity="1.000000" stroke="none" 
	d="
M269.021576,66.907784 
	C262.338745,65.449303 255.655884,63.990826 248.480591,62.113014 
	C246.276093,56.201336 244.564056,50.708992 243.124573,44.960876 
	C245.061234,44.024532 246.832611,43.526611 248.367096,42.625347 
	C251.557922,40.751263 255.188660,39.190586 257.635529,36.565964 
	C265.376343,28.262714 272.443115,19.278812 283.918152,15.695377 
	C284.763245,15.431465 285.374695,14.419497 286.094788,13.755308 
	C290.957703,15.563408 295.820618,17.371506 300.722870,19.761841 
	C297.356384,23.638866 293.738586,26.743698 290.584351,30.263926 
	C280.951752,41.014210 274.500977,53.686726 269.021576,66.907784 
z"/>
<path fill="#7761C0" opacity="1.000000" stroke="none" 
	d="
M170.000610,34.999752 
	C167.388031,39.438793 164.775452,43.877834 161.807617,48.771587 
	C160.968445,49.817432 160.484528,50.408566 160.000610,50.999695 
	C153.509125,59.892372 147.080383,68.831680 140.511520,77.666832 
	C130.567474,91.041649 120.527672,104.345291 110.524536,117.676163 
	C107.853790,121.235405 104.901215,123.948288 99.777473,120.899872 
	C105.069183,108.970360 110.735786,97.144203 116.373520,85.304306 
	C117.439308,83.066025 118.390305,80.773087 120.042961,78.248795 
	C122.537689,77.397919 124.841904,77.306664 126.146751,76.118187 
	C130.678223,71.990829 135.472183,67.929382 139.061707,63.033081 
	C148.680115,49.913101 157.726059,36.373428 167.350342,23.077953 
	C174.152679,25.280720 174.087631,25.244917 171.037918,30.785490 
	C170.364090,32.009666 170.329529,33.585724 170.000610,34.999752 
z"/>
<path fill="#A753B1" opacity="1.000000" stroke="none" 
	d="
M261.348267,155.893356 
	C259.136292,151.340973 254.849991,152.419220 250.781097,151.838333 
	C255.479721,148.886307 261.012726,146.462631 265.725067,142.940842 
	C272.561005,137.832016 279.738586,132.692505 285.060394,126.170662 
	C291.518158,118.256714 294.323944,108.468903 291.928589,97.886581 
	C291.641815,96.619644 291.829651,95.245285 292.165161,93.391571 
	C296.721680,88.564156 301.063141,84.402481 305.062256,79.934410 
	C310.529083,73.826538 315.250580,66.964020 321.215271,61.418526 
	C325.565002,57.374512 331.406433,54.934917 336.582855,51.780083 
	C339.560822,57.956825 342.538788,64.133560 345.505737,70.664886 
	C342.912628,70.778198 340.114105,69.789154 337.796082,70.460091 
	C333.685028,71.650017 329.401459,73.239746 326.055145,75.795036 
	C322.726166,78.337067 320.285553,82.145676 317.770660,85.626633 
	C313.913391,90.965584 309.719086,96.195221 306.791260,102.034561 
	C303.729004,108.141998 300.231537,113.436752 294.217834,116.849525 
	C293.840302,117.063766 293.466736,117.656036 293.452667,118.084290 
	C293.217834,125.241623 286.442688,127.787399 283.298462,132.780075 
	C279.685974,138.516251 273.584167,140.373016 269.023743,144.437332 
	C267.139893,146.116241 266.331787,148.973907 264.927490,151.228882 
	C263.944031,152.808090 262.779358,154.274445 261.348267,155.893356 
z"/>
<path fill="#8C5BBA" opacity="1.000000" stroke="none" 
	d="
M173.073975,102.362335 
	C174.219345,101.501251 175.626907,101.103050 176.828323,100.367928 
	C178.083755,99.599747 179.402023,98.695442 180.243332,97.527000 
	C187.042191,88.084373 193.430649,78.324547 200.640228,69.212090 
	C202.893509,66.364113 207.076431,64.520767 210.736588,63.449818 
	C214.658844,62.302189 215.934235,59.826431 216.944000,56.162773 
	C220.029037,61.628750 222.966568,67.442680 225.558289,73.679482 
	C223.389145,75.720634 221.473511,77.247414 219.760834,78.975380 
	C215.620285,83.152832 211.147659,87.097298 207.594330,91.737198 
	C202.728226,98.091286 197.850067,104.642029 194.368500,111.786545 
	C191.490616,117.692284 188.860123,120.840836 182.021362,121.000259 
	C179.096085,114.892555 176.170807,108.784851 173.073975,102.362335 
z"/>
<path fill="#C84BA5" opacity="1.000000" stroke="none" 
	d="
M275.149597,312.257385 
	C275.652649,311.012115 276.078430,309.678772 276.964325,309.203796 
	C284.735107,305.038177 287.821747,297.404938 291.476257,290.134186 
	C295.419037,282.289795 302.210175,277.879700 310.221832,275.005157 
	C312.354309,274.240021 314.421631,273.293274 316.779938,272.181580 
	C321.005005,280.371368 324.969025,288.809479 328.920166,297.623199 
	C320.165344,298.281219 312.994019,301.238831 307.836639,308.861420 
	C304.880554,313.230530 301.761658,317.951263 295.198578,317.918365 
	C293.255707,317.908600 291.304901,319.475616 289.188965,320.621094 
	C284.442047,318.137207 279.863831,315.352264 275.149597,312.257385 
z"/>
<path fill="#9B57B5" opacity="1.000000" stroke="none" 
	d="
M269.231201,67.180504 
	C274.500977,53.686726 280.951752,41.014210 290.584351,30.263926 
	C293.738586,26.743698 297.356384,23.638866 300.943848,20.038458 
	C307.358917,23.934586 313.592316,28.136330 319.628113,32.758095 
	C317.831696,34.548401 315.982635,35.715672 314.677734,37.324364 
	C309.230957,44.039215 303.393433,50.532780 298.762299,57.786266 
	C294.231934,64.881912 290.359955,72.308495 283.292114,77.323166 
	C278.675018,74.033188 274.057953,70.743210 269.231201,67.180504 
z"/>
<path fill="#B150AC" opacity="1.000000" stroke="none" 
	d="
M208.056442,263.872406 
	C218.041565,273.489777 220.950500,290.913971 209.613037,304.222015 
	C199.827957,315.707855 181.779984,318.255096 170.495575,309.231323 
	C175.569107,303.969604 181.671844,299.848419 185.075989,294.122833 
	C191.633972,283.092621 199.376221,273.180389 208.056442,263.872406 
z"/>
<path fill="#A356B4" opacity="1.000000" stroke="none" 
	d="
M283.468231,77.631805 
	C290.359955,72.308495 294.231934,64.881912 298.762299,57.786266 
	C303.393433,50.532780 309.230957,44.039215 314.677734,37.324364 
	C315.982635,35.715672 317.831696,34.548401 319.765106,33.072678 
	C325.532227,39.006004 330.964722,45.044781 336.490051,51.431816 
	C331.406433,54.934917 325.565002,57.374512 321.215271,61.418526 
	C315.250580,66.964020 310.529083,73.826538 305.062256,79.934410 
	C301.063141,84.402481 296.721680,88.564156 292.193695,92.955139 
	C289.117828,88.012054 286.381104,82.976250 283.468231,77.631805 
z"/>
<path fill="#9159B9" opacity="1.000000" stroke="none" 
	d="
M181.988861,121.364899 
	C188.860123,120.840836 191.490616,117.692284 194.368500,111.786545 
	C197.850067,104.642029 202.728226,98.091286 207.594330,91.737198 
	C211.147659,87.097298 215.620285,83.152832 219.760834,78.975380 
	C221.473511,77.247414 223.389145,75.720634 225.551270,74.051186 
	C228.569626,79.424034 231.249191,84.848053 233.648102,90.739929 
	C230.662994,96.084946 225.874207,98.111008 221.146667,100.287514 
	C220.177643,100.733635 219.367996,101.750504 218.742203,102.677925 
	C216.252060,106.368309 213.723755,110.045074 211.468658,113.879257 
	C207.538559,120.561295 203.194595,127.101318 200.208664,134.199188 
	C198.422119,138.445969 196.521088,142.126953 193.012283,145.001190 
	C189.326965,137.243973 185.641647,129.486755 181.988861,121.364899 
z"/>
<path fill="#7262C0" opacity="1.000000" stroke="none" 
	d="
M166.999390,23.000465 
	C157.726059,36.373428 148.680115,49.913101 139.061707,63.033081 
	C135.472183,67.929382 130.678223,71.990829 126.146751,76.118187 
	C124.841904,77.306664 122.537689,77.397919 120.290474,77.995270 
	C124.172363,68.868515 128.378082,59.701443 132.756287,50.617496 
	C139.678207,36.255859 146.797699,21.988871 153.637558,7.588723 
	C155.063034,4.587644 156.800827,3.419735 160.124222,3.577676 
	C166.099350,3.861637 172.095352,3.706614 178.439255,4.174674 
	C178.006836,5.401471 177.343445,6.648756 176.409119,6.903874 
	C167.942322,9.215790 166.202530,15.340505 166.999390,23.000465 
z"/>
<path fill="#9758B7" opacity="1.000000" stroke="none" 
	d="
M192.978577,145.361908 
	C196.521088,142.126953 198.422119,138.445969 200.208664,134.199188 
	C203.194595,127.101318 207.538559,120.561295 211.468658,113.879257 
	C213.723755,110.045074 216.252060,106.368309 218.742203,102.677925 
	C219.367996,101.750504 220.177643,100.733635 221.146667,100.287514 
	C225.874207,98.111008 230.662994,96.084946 233.702484,91.098206 
	C236.719681,96.746780 239.401886,102.504936 241.638855,108.669449 
	C239.684769,110.010620 237.950119,110.714699 236.712219,111.926323 
	C233.770874,114.805275 230.574341,117.605721 228.360916,121.010033 
	C222.998306,129.257874 218.137909,137.832245 212.848831,146.511536 
	C207.458084,149.154755 202.293625,151.561493 197.129166,153.968231 
	C195.734406,151.219696 194.339630,148.471161 192.978577,145.361908 
z"/>
<path fill="#AC52B0" opacity="1.000000" stroke="none" 
	d="
M207.920273,263.563293 
	C199.376221,273.180389 191.633972,283.092621 185.075989,294.122833 
	C181.671844,299.848419 175.569107,303.969604 170.352478,308.907349 
	C166.641220,304.930573 163.262939,300.862000 160.187515,296.419128 
	C162.074814,295.293854 164.489899,294.958038 165.106934,293.723541 
	C168.726578,286.481689 172.411758,279.200378 175.086075,271.585144 
	C176.696625,266.999023 178.735718,263.884247 183.179489,261.683350 
	C185.899292,260.336273 187.756134,257.246826 190.000549,254.939911 
	C197.047913,255.316772 202.949234,258.144958 207.920273,263.563293 
z"/>
<path fill="#883791" opacity="1.000000" stroke="none" 
	d="
M291.942810,217.649979 
	C278.539001,222.541107 265.482758,227.984940 254.712646,237.229233 
	C249.993561,241.279755 247.036972,247.383667 243.081223,252.847290 
	C240.342407,247.955246 237.379379,242.917511 235.505295,237.502899 
	C234.897079,235.745621 236.487274,232.061096 238.194382,230.878784 
	C244.290253,226.656876 250.662537,222.711197 257.317047,219.450394 
	C265.325958,215.525925 273.813904,212.590134 281.925110,208.858231 
	C285.604706,207.165283 287.791931,207.476929 289.213104,211.443909 
	C289.935760,213.461105 291.036377,215.342896 291.942810,217.649979 
z"/>
<path fill="#845CBB" opacity="1.000000" stroke="none" 
	d="
M47.658649,229.203308 
	C51.047108,230.488266 52.870972,229.521027 54.780254,226.497665 
	C57.539143,222.129013 61.114254,218.275803 64.671013,214.101334 
	C69.375725,216.951584 70.516144,211.193085 73.689964,210.607407 
	C72.979935,214.315918 72.305145,217.840378 71.814690,221.682404 
	C70.408028,224.308655 69.211876,227.100845 67.126350,228.803986 
	C64.505898,230.943954 61.643593,232.475281 61.850105,236.491150 
	C61.895275,237.369400 61.413399,238.782486 60.755669,239.110855 
	C53.952492,242.507446 54.610767,250.445007 50.679821,255.379837 
	C46.434116,260.709808 41.182842,265.302368 35.952988,269.722992 
	C35.069084,270.470123 32.078773,268.725250 29.747007,267.934204 
	C35.426521,254.972092 41.420708,242.207504 47.658649,229.203308 
z"/>
<path fill="#8E58B7" opacity="1.000000" stroke="none" 
	d="
M285.852661,13.469379 
	C285.374695,14.419497 284.763245,15.431465 283.918152,15.695377 
	C272.443115,19.278812 265.376343,28.262714 257.635529,36.565964 
	C255.188660,39.190586 251.557922,40.751263 248.367096,42.625347 
	C246.832611,43.526611 245.061234,44.024532 242.923340,44.690590 
	C241.652924,43.108013 240.856323,41.539955 240.015167,39.587906 
	C238.642548,34.802952 237.314499,30.401997 236.377075,25.988714 
	C237.261139,25.933384 237.835403,26.040686 238.236115,25.825207 
	C246.483612,21.390169 254.766647,17.014458 262.879913,12.344296 
	C264.021515,11.687181 264.313812,9.554568 264.999237,8.104925 
	C271.869659,9.797770 278.740112,11.490611 285.852661,13.469379 
z"/>
<path fill="#9C56B5" opacity="1.000000" stroke="none" 
	d="
M213.075119,146.275024 
	C218.137909,137.832245 222.998306,129.257874 228.360916,121.010033 
	C230.574341,117.605721 233.770874,114.805275 236.712219,111.926323 
	C237.950119,110.714699 239.684769,110.010620 241.545074,109.038216 
	C245.567383,116.430145 249.238205,123.859665 252.655182,131.796661 
	C239.292572,136.961105 226.183853,141.618057 213.075119,146.275024 
z"/>
<path fill="#633F9F" opacity="1.000000" stroke="none" 
	d="
M235.986450,26.001041 
	C237.314499,30.401997 238.642548,34.802952 239.722839,39.777336 
	C235.936661,44.346916 231.301025,43.210934 226.872787,43.045033 
	C221.781174,32.200779 216.689560,21.356525 210.946304,9.124404 
	C218.705200,8.260046 225.418655,7.512153 232.559387,7.334536 
	C233.986618,13.936889 234.986542,19.968964 235.986450,26.001041 
z"/>
<path fill="#A453B0" opacity="1.000000" stroke="none" 
	d="
M189.557343,254.832031 
	C187.756134,257.246826 185.899292,260.336273 183.179489,261.683350 
	C178.735718,263.884247 176.696625,266.999023 175.086075,271.585144 
	C172.411758,279.200378 168.726578,286.481689 165.106934,293.723541 
	C164.489899,294.958038 162.074814,295.293854 160.087265,296.074615 
	C153.952103,284.856598 158.175995,269.926300 166.719025,262.292969 
	C172.985641,256.693695 180.504730,253.859177 189.557343,254.832031 
z"/>
<path fill="#7963C0" opacity="1.000000" stroke="none" 
	d="
M167.350342,23.077951 
	C166.202530,15.340505 167.942322,9.215790 176.409119,6.903874 
	C177.343445,6.648756 178.006836,5.401471 178.897675,4.280158 
	C182.135178,3.852166 185.298523,3.987251 188.400299,3.612629 
	C193.457855,3.001796 195.799545,5.296252 196.230988,10.501967 
	C193.438705,12.505708 190.093353,13.594068 187.888199,15.814678 
	C181.874512,21.870506 176.342224,28.404390 170.309906,34.874313 
	C170.329529,33.585724 170.364090,32.009666 171.037918,30.785490 
	C174.087631,25.244917 174.152679,25.280720 167.350342,23.077951 
z"/>
<path fill="#703A97" opacity="1.000000" stroke="none" 
	d="
M212.848831,146.511536 
	C226.183853,141.618057 239.292572,136.961105 252.738770,132.149704 
	C254.882843,134.989227 252.986343,135.719757 250.585617,136.887924 
	C234.235062,144.843933 217.980942,152.998077 200.958694,161.454422 
	C199.817413,159.369720 198.525360,157.009552 197.181229,154.308807 
	C202.293625,151.561493 207.458084,149.154755 212.848831,146.511536 
z"/>
<path fill="#6F3A97" opacity="1.000000" stroke="none" 
	d="
M147.279297,239.514374 
	C148.980728,220.490356 154.981842,202.901321 164.686920,186.550049 
	C165.601318,185.009460 166.210068,183.287445 166.975403,181.279236 
	C169.854553,180.908798 172.719025,180.908798 177.150116,180.908798 
	C161.834854,198.240082 155.256180,217.793839 152.467941,239.399597 
	C150.863464,239.477173 149.273285,239.554062 147.279297,239.514374 
z"/>
<path fill="#8A5EB8" opacity="1.000000" stroke="none" 
	d="
M236.377075,25.988716 
	C234.986542,19.968964 233.986618,13.936889 232.996735,7.445858 
	C243.392410,7.254634 253.778046,7.522364 264.581451,7.947508 
	C264.313812,9.554568 264.021515,11.687181 262.879913,12.344296 
	C254.766647,17.014458 246.483612,21.390169 238.236115,25.825207 
	C237.835403,26.040686 237.261139,25.933384 236.377075,25.988716 
z"/>
<path fill="#6A3E9D" opacity="1.000000" stroke="none" 
	d="
M226.921509,43.410255 
	C231.301025,43.210934 235.936661,44.346916 239.767395,40.161327 
	C240.856323,41.539955 241.652924,43.108013 242.650757,44.946358 
	C244.564056,50.708992 246.276093,56.201336 248.061630,62.026688 
	C244.859344,62.462925 241.540253,62.917301 238.326172,62.520626 
	C236.729111,62.323524 234.680115,60.891617 233.949615,59.452736 
	C231.363525,54.358791 229.257935,49.020908 226.921509,43.410255 
z"/>
<path fill="#8056B3" opacity="1.000000" stroke="none" 
	d="
M21.140087,284.069702 
	C23.182442,285.333160 24.993296,286.826965 26.901415,288.661621 
	C25.513029,292.196289 24.027378,295.390167 22.271622,298.789246 
	C20.075500,298.341461 18.149483,297.688416 15.960092,296.744751 
	C17.434008,292.402771 19.171297,288.351440 21.140087,284.069702 
z"/>
<path fill="#905AB6" opacity="1.000000" stroke="none" 
	d="
M112.174973,240.074066 
	C112.588516,239.829620 113.126144,239.794174 113.835205,239.892303 
	C113.437439,240.111618 112.868240,240.197327 112.174973,240.074066 
z"/>
<path fill="#7963C0" opacity="1.000000" stroke="none" 
	d="
M160.274109,50.886700 
	C160.484528,50.408566 160.968445,49.817432 161.725876,49.113342 
	C161.515457,49.591492 161.031540,50.182594 160.274109,50.886700 
z"/>
</svg>